<svg xmlns="http://www.w3.org/2000/svg" xmlns:xlink="http://www.w3.org/1999/xlink" width="59" height="65" viewBox="0 0 59 65">
  <defs>
    <clipPath id="clip-path">
      <circle id="Ellipse_1" data-name="Ellipse 1" cx="24.5" cy="24.5" r="24.5" transform="translate(747 608)" fill="#fff" stroke="#707070" stroke-width="1"/>
    </clipPath>
  </defs>
  <g id="adobexd" transform="translate(-849 -608)">
    <g id="Mask_Group_4" data-name="Mask Group 4" transform="translate(107)" clip-path="url(#clip-path)">
      <g id="xd" transform="translate(747 608)">
        <circle id="Ellipse_2" data-name="Ellipse 2" cx="24.5" cy="24.5" r="24.5" transform="translate(0 0)" fill="#592b49"/>
        <path id="Path_10" data-name="Path 10" d="M48.947,22.9l-8.418-8.418H36.751v7.1a5.346,5.346,0,0,0-4.141-1.99,6.433,6.433,0,0,0-1.2.11L26.19,14.484H21.579L18.61,19.34l-4.855-4.855H9.1l6.1,9.424L8.471,34.193,23.247,48.968Q23.87,49,24.5,49A24.5,24.5,0,0,0,49,24.5C49,23.963,48.981,23.431,48.947,22.9Z" fill="#291221"/>
        <g id="Group_6" data-name="Group 6">
          <path id="Path_11" data-name="Path 11" d="M8.471,34.193l6.735-10.284L9.1,14.484h4.651l3.953,6.332,3.872-6.332H26.19l-6.13,9.572,6.735,10.137H22l-4.369-6.816-4.383,6.816Z" fill="#da2286"/>
          <path id="Path_12" data-name="Path 12" d="M40.529,34.193H37.02V32.1a5.668,5.668,0,0,1-2.064,1.822,5.3,5.3,0,0,1-2.4.6,5.438,5.438,0,0,1-4.215-1.983A8.066,8.066,0,0,1,26.588,27,7.972,7.972,0,0,1,28.3,21.482a5.567,5.567,0,0,1,4.316-1.889,5.347,5.347,0,0,1,4.141,1.99v-7.1h3.778V34.193ZM30.446,26.745a6.535,6.535,0,0,0,.632,3.307,2.854,2.854,0,0,0,2.554,1.479,2.781,2.781,0,0,0,2.218-1.109,5.119,5.119,0,0,0,.914-3.314,5.6,5.6,0,0,0-.887-3.542,2.808,2.808,0,0,0-2.272-1.082,2.838,2.838,0,0,0-2.252,1.069A4.829,4.829,0,0,0,30.446,26.745Z" fill="#da2286"/>
        </g>
      </g>
    </g>
    <text id="ADOBE_XD" data-name="ADOBE XD" transform="translate(849 670)" font-size="12" font-family="SegoeUI-Semibold, Segoe UI" font-weight="600"><tspan x="0" y="0">ADOBE XD</tspan></text>
  </g>
</svg>
