<svg xmlns="http://www.w3.org/2000/svg" xmlns:xlink="http://www.w3.org/1999/xlink" width="49" height="65" viewBox="0 0 49 65">
  <defs>
    <clipPath id="clip-path">
      <circle id="Ellipse_1" data-name="Ellipse 1" cx="24.5" cy="24.5" r="24.5" transform="translate(540 608)" fill="#fff" stroke="#707070" stroke-width="1"/>
    </clipPath>
  </defs>
  <g id="html" transform="translate(-540 -608)">
    <g id="Mask_Group_1" data-name="Mask Group 1" clip-path="url(#clip-path)">
      <g id="html5" transform="translate(542.543 608)">
        <path id="Path_1" data-name="Path 1" d="M0,0,4.236,44.167,22.083,49l17.594-4.833L43.914,0ZM0,0" fill="#fd982c"/>
        <path id="Path_2" data-name="Path 2" d="M22.083,0V49l17.594-4.833L43.914,0Zm0,0" fill="#fa502e"/>
        <path id="Path_3" data-name="Path 3" d="M35.14,15.253H16.4l.314,3.429H35.051L33.568,37.84l-11.5,3.345L9.723,37.346v-7.77h7.668v2.314l4.677,1.445L26.5,31.89l.323-5.737H9.842L7.925,7.877H35.139Zm0,0" fill="#fff"/>
        <g id="Group_5" data-name="Group 5">
          <path id="Path_4" data-name="Path 4" d="M22.083,7.877H35.14v7.376H22.083Zm0,0" fill="#deecf1"/>
          <path id="Path_5" data-name="Path 5" d="M26.823,26.153,26.5,31.89l-4.418,1.442v7.85L33.568,37.84l1.482-19.159H22.083v7.472Zm0,0" fill="#deecf1"/>
        </g>
      </g>
    </g>
    <text id="HTML5-2" data-name="HTML5" transform="translate(545 670)" font-size="12" font-family="SegoeUI-Semibold, Segoe UI" font-weight="600"><tspan x="0" y="0">HTML5</tspan></text>
  </g>
</svg>
