<svg xmlns="http://www.w3.org/2000/svg" xmlns:xlink="http://www.w3.org/1999/xlink" width="66" height="65" viewBox="0 0 66 65">
  <defs>
    <clipPath id="clip-path">
      <circle id="Ellipse_1" data-name="Ellipse 1" cx="24.5" cy="24.5" r="24.5" transform="translate(545 492)" fill="#fff" stroke="#707070" stroke-width="1"/>
    </clipPath>
  </defs>
  <g id="javascript" transform="translate(-537 -492)">
    <g id="Mask_Group_5" data-name="Mask Group 5" clip-path="url(#clip-path)">
      <g id="javascript-2" data-name="javascript" transform="translate(545 492)">
        <path id="Path_13" data-name="Path 13" d="M49,24.5a24.376,24.376,0,1,1-1.721-9.038A24.427,24.427,0,0,1,49,24.5Z" fill="#e4ba42"/>
        <g id="Group_7" data-name="Group 7">
          <path id="Path_14" data-name="Path 14" d="M37.425,22.3c-.682-1.978-3.478-1.978-4.023-.341s1.3,2.591,4.16,3.546,4.637,3.478,4.3,5.728-1.3,5.183-6.956,5.183a7.346,7.346,0,0,1-6.48-3.869l3.207-1.927s1.091,2.319,3.137,2.319,2.864-.682,2.864-2.25c0-1.909-6.615-2.591-7.638-5.865s.341-7.91,5.114-7.57A7.4,7.4,0,0,1,40.607,20Z" fill="#f2f2f2"/>
          <path id="Path_15" data-name="Path 15" d="M22.559,17.591V30.684A2.162,2.162,0,0,1,19.831,32.8c-1.364-.273-1.978-1.909-1.978-1.909L14.716,33s.682,3.137,4.978,3.41,6.751-2.319,6.751-4.5V17.591Z" fill="#f2f2f2"/>
          <path id="Path_16" data-name="Path 16" d="M7.079,4.327v37.4a24.513,24.513,0,0,0,3.305,2.8H38.616A24.564,24.564,0,0,0,41.3,42.333H9.273V6.521H45.084V37.792a24.367,24.367,0,0,0,2.2-4.254V4.327Z" fill="#f2f2f2"/>
        </g>
        <circle id="Ellipse_3" data-name="Ellipse 3" cx="3.887" cy="3.887" r="3.887" transform="translate(4.521 28.57)" fill="#3f4a43"/>
      </g>
    </g>
    <text id="JAVASCRIPT-3" data-name="JAVASCRIPT" transform="translate(537 554)" font-size="12" font-family="SegoeUI-Semibold, Segoe UI" font-weight="600"><tspan x="0" y="0">JAVASCRIPT</tspan></text>
  </g>
</svg>
