<svg xmlns="http://www.w3.org/2000/svg" xmlns:xlink="http://www.w3.org/1999/xlink" width="61" height="61" viewBox="0 0 61 61">
  <defs>
    <clipPath id="clip-path">
      <circle id="Ellipse_1" data-name="Ellipse 1" cx="30.5" cy="30.5" r="30.5" transform="translate(948 509)" fill="#fff" stroke="#707070" stroke-width="1"/>
    </clipPath>
  </defs>
  <g id="mysite" transform="translate(-948 -509)">
    <g id="Mask_Group_9" data-name="Mask Group 9" clip-path="url(#clip-path)">
      <g id="global" transform="translate(948 509)">
        <circle id="Ellipse_6" data-name="Ellipse 6" cx="30.5" cy="30.5" r="30.5" fill="#3e5959"/>
        <path id="Path_30" data-name="Path 30" d="M13.291,42.963,28.856,58.529a30.523,30.523,0,0,0,27.9-38.189L46.335,9.919Z" transform="translate(3.255 2.429)" fill="#293939"/>
        <g id="Group_17" data-name="Group 17" transform="translate(10.604 8.936)">
          <path id="Path_31" data-name="Path 31" d="M43.384,29A16.9,16.9,0,0,1,26.476,45.989h-.024a16.948,16.948,0,1,1,0-33.9h.024A16.9,16.9,0,0,1,43.384,29Z" transform="translate(-8.28 -5.974)" fill="#61d7a8"/>
          <path id="Path_32" data-name="Path 32" d="M26.714,11.123h-.024a18.128,18.128,0,1,0,.024,0Zm-5.773,3.526a17.939,17.939,0,0,0-2,3.72H15.361A15.614,15.614,0,0,1,20.941,14.649Zm-7.463,6.135h4.662a31.706,31.706,0,0,0-1.063,7.246H11.006A14.861,14.861,0,0,1,13.477,20.784Zm.048,16.908a15.527,15.527,0,0,1-2.52-7.246H17.1a32.547,32.547,0,0,0,1.039,7.246Zm1.884,2.415h3.527a18.455,18.455,0,0,0,1.98,3.72A14.981,14.981,0,0,1,15.41,40.108Zm10.1,4.646c-1.473-.58-2.85-2.254-3.937-4.646h3.937Zm0-7.061H20.675a28.257,28.257,0,0,1-1.159-7.246h5.99Zm0-9.661H19.492a27.581,27.581,0,0,1,1.159-7.246h4.855Zm0-9.662H21.545c1.111-2.391,2.512-3.985,3.961-4.565Zm16.835,9.662h-5.99c-.121-6.208-1.111-10.338-3.381-13.188A15.556,15.556,0,0,1,42.341,28.031ZM27.921,13.8a9,9,0,0,1,4.4,4.565h-4.4V13.8Zm0,6.98h5.217a31.392,31.392,0,0,1,.8,7.246H27.921V20.784Zm0,9.662h6.014a27.576,27.576,0,0,1-1.159,7.246H27.921Zm0,14.307V40.108h3.961C30.771,42.5,29.37,44.173,27.921,44.753Zm4.565-.9a18.8,18.8,0,0,0,2-3.744h3.575A15.994,15.994,0,0,1,32.486,43.851Zm2.8-6.159a31.709,31.709,0,0,0,1.063-7.246h6.014a15.032,15.032,0,0,1-2.415,7.246Z" transform="translate(-8.518 -6.212)" fill="#a5f2b5"/>
          <path id="Path_33" data-name="Path 33" d="M40.047,29A16.9,16.9,0,0,1,23.139,45.989h-.024v-33.9h.024A16.9,16.9,0,0,1,40.047,29Z" transform="translate(-4.943 -5.974)" fill="#00ab94"/>
          <path id="Path_34" data-name="Path 34" d="M23.139,11.123h-.024V47.434a18.156,18.156,0,0,0,.024-36.311ZM38.766,28.031h-5.99c-.121-6.208-1.111-10.338-3.381-13.188A15.556,15.556,0,0,1,38.766,28.031ZM24.346,13.8a9,9,0,0,1,4.4,4.565h-4.4V13.8Zm0,6.98h5.217a31.392,31.392,0,0,1,.8,7.246H24.346V20.784Zm0,9.662h6.014A27.576,27.576,0,0,1,29.2,37.692H24.346Zm0,14.307V40.108h3.961C27.2,42.5,25.8,44.173,24.346,44.753Zm4.565-.9a18.8,18.8,0,0,0,2-3.744h3.575A15.994,15.994,0,0,1,28.912,43.851Zm2.8-6.159a31.709,31.709,0,0,0,1.063-7.246H38.79a15.032,15.032,0,0,1-2.415,7.246Z" transform="translate(-4.943 -6.212)" fill="#80d398"/>
          <g id="Group_13" data-name="Group 13" transform="translate(19.404)">
            <path id="Path_35" data-name="Path 35" d="M28.935,28.289V22.714c-3-1.559-4.831-4.186-4.831-7,0-4.661,4.876-8.534,10.869-8.534s10.95,3.873,10.95,8.534c0,4.529-4.682,8.237-10.44,8.444Z" transform="translate(-24.104 -7.178)" fill="#ffda2d"/>
          </g>
          <g id="Group_14" data-name="Group 14" transform="translate(24.234 7.327)">
            <circle id="Ellipse_7" data-name="Ellipse 7" cx="1.208" cy="1.208" r="1.208" fill="#3e5959"/>
          </g>
          <g id="Group_15" data-name="Group 15" transform="translate(29.065 7.327)">
            <circle id="Ellipse_8" data-name="Ellipse 8" cx="1.208" cy="1.208" r="1.208" fill="#3e5959"/>
          </g>
          <g id="Group_16" data-name="Group 16" transform="translate(33.896 7.327)">
            <circle id="Ellipse_9" data-name="Ellipse 9" cx="1.208" cy="1.208" r="1.208" fill="#3e5959"/>
          </g>
        </g>
      </g>
    </g>
  </g>
</svg>
