<svg xmlns="http://www.w3.org/2000/svg" xmlns:xlink="http://www.w3.org/1999/xlink" width="61" height="61" viewBox="0 0 61 61">
  <defs>
    <clipPath id="clip-path">
      <circle id="ifsul" cx="30.5" cy="30.5" r="30.5" transform="translate(578 468)" fill="#df1212" stroke="#707070" stroke-width="1"/>
    </clipPath>
  </defs>
  <g id="nicetrip" transform="translate(-1059 -504)">
    <g id="ifsul-2" data-name="ifsul" transform="translate(1059 504)" fill="#df1212" stroke="#707070" stroke-width="1">
      <circle cx="30.5" cy="30.5" r="30.5" stroke="none"/>
      <circle cx="30.5" cy="30.5" r="30" fill="none"/>
    </g>
    <g id="Mask_Group_10" data-name="Mask Group 10" transform="translate(481 36)" clip-path="url(#clip-path)">
      <g id="Group_1" data-name="Group 1" transform="translate(414.2 447.176)">
        <g id="Group_1-2" data-name="Group 1" transform="translate(164.789 44.156)">
          <path id="Path_1" data-name="Path 1" d="M25.77,36.566a4.112,4.112,0,0,1-2.707-1.332c-.4-.356-.742-.662-1.02-.664h-.319l.018-.319a5.162,5.162,0,0,1,5.151-4.873q.161,0,.319.009h.108l.079.073a1.637,1.637,0,0,1,.05,2.575,10.757,10.757,0,0,1-1.118,1.047,4.763,4.763,0,0,0-1.19,1.248.491.491,0,0,0-.007.488,1.531,1.531,0,0,0,.737.537,3.4,3.4,0,0,1,.829.468h.041l.182.236-.1.374h-.182a2.311,2.311,0,0,1-.782.127Z" transform="translate(-19.914 -27.196)" fill="#ccd33d"/>
          <path id="Path_2" data-name="Path 2" d="M26.932,39.2a5.162,5.162,0,0,1-5.159-4.98l-.01-.324.322.009c.351.009.692.315,1.125.7a3.911,3.911,0,0,0,2.59,1.287h.091a2.038,2.038,0,0,0,.771-.137.182.182,0,0,0,.1-.094c.01-.032.012-.05-.05-.124a2.5,2.5,0,0,0-.875-.532,1.746,1.746,0,0,1-.728-.524.694.694,0,0,1-.072-.716,4.613,4.613,0,0,1,1.233-1.307,10.723,10.723,0,0,0,1.1-1.024c.672-.767.757-1.363.3-1.969l-.476-.637.779.15a5.132,5.132,0,0,1,2.086.939l.168.127-.394,1.3.418.418.614-1.113.279.392a5.127,5.127,0,0,1,.832,1.874l.05.228-.207.1c-.806.41-.834.64-.884,1.06-.056.455-.132,1.093-1.483,2.221a3.892,3.892,0,0,0-.939,1.035,1.707,1.707,0,0,0-.192,1.152l.046.29-.279.064a5.187,5.187,0,0,1-1.154.127Z" transform="translate(-19.947 -26.693)" fill="#73ddcd"/>
          <path id="Path_3" data-name="Path 3" d="M115.166,10.024l.256-.847-1.085-1.021-1.2,2.159-.647-.647.768-2.528-.921-.868a.62.62,0,0,1-.159-.7.776.776,0,0,1,.41-.41h.015a.62.62,0,0,1,.221-.041.63.63,0,0,1,.455.206l.865.92,2.531-.765.647.647L115.17,7.323l1.021,1.083.845-.258.526.526-1.027.573-.182.091-.083.17-.584,1.042Z" transform="translate(-102.803 -4.958)" fill="#fff"/>
          <path id="Path_4" data-name="Path 4" d="M98.12,84.216A1.874,1.874,0,0,1,98.341,83a4.046,4.046,0,0,1,.991-1.085c1.3-1.085,1.363-1.653,1.424-2.114.05-.414.139-.735.845-1.122l.392-.215.05.445a5.233,5.233,0,0,1,.038.633,5.129,5.129,0,0,1-1.515,3.651,5.185,5.185,0,0,1-2.048,1.257l-.344.112Z" transform="translate(-89.933 -72.201)" fill="#ccd33d"/>
          <path id="Path_5" data-name="Path 5" d="M23.96,146.547a.228.228,0,0,0,0,.321,5.784,5.784,0,0,0,.473.429.228.228,0,1,0,.321-.321l-.019-.016-.015-.012c-.15-.126-.3-.26-.442-.4a.228.228,0,0,0-.319,0Z" transform="translate(-21.902 -134.556)" fill="#2b1b19"/>
          <path id="Path_6" data-name="Path 6" d="M.752,72.067H.78a.228.228,0,0,0,.228-.2c.024-.2.058-.4.1-.588a.228.228,0,1,0-.438-.1c-.046.207-.08.418-.106.629a.228.228,0,0,0,.189.254Z" transform="translate(-0.51 -65.323)" fill="#2b1b19"/>
          <path id="Path_7" data-name="Path 7" d="M11.563,130.463a.228.228,0,0,0-.079.311h0c.109.182.228.361.351.532a.228.228,0,0,0,.366-.268c-.117-.161-.228-.327-.329-.5a.228.228,0,0,0-.311-.079Z" transform="translate(-10.494 -119.84)" fill="#2b1b19"/>
          <path id="Path_8" data-name="Path 8" d="M3.345,111.813a.228.228,0,0,0-.15.282c.061.2.13.406.209.606a.231.231,0,0,0,.429-.171h0c-.073-.182-.139-.373-.2-.564a.228.228,0,0,0-.282-.15Z" transform="translate(-2.916 -102.763)" fill="#2b1b19"/>
          <path id="Path_9" data-name="Path 9" d="M5.752,53.238a.228.228,0,0,0,.3-.127h0a5.445,5.445,0,0,1,.244-.544.228.228,0,1,0-.406-.2h0c-.1.189-.182.385-.26.584a.228.228,0,0,0,.127.291Z" transform="translate(-5.139 -48.152)" fill="#2b1b19"/>
          <path id="Path_10" data-name="Path 10" d="M.269,92.8H.306A.228.228,0,0,0,.5,92.55h0c-.024-.2-.041-.4-.05-.592A.228.228,0,1,0,0,91.974a4.969,4.969,0,0,0,.05.637.228.228,0,0,0,.217.2Z" transform="translate(0.004 -84.364)" fill="#2b1b19"/>
          <path id="Path_11" data-name="Path 11" d="M65.466,8.44h.046c.2-.038.394-.066.592-.086a.229.229,0,1,0-.046-.455,6.312,6.312,0,0,0-.631.091.228.228,0,1,0,.011.455l.031,0Z" transform="translate(-59.773 -7.499)" fill="#2b1b19"/>
          <path id="Path_12" data-name="Path 12" d="M15.477,36.166a.228.228,0,0,0,.185-.094c.117-.161.241-.319.371-.467a.229.229,0,1,0-.331-.316l-.011.013a5.426,5.426,0,0,0-.4.5.228.228,0,0,0,.182.361Z" transform="translate(-13.978 -32.548)" fill="#2b1b19"/>
          <path id="Path_13" data-name="Path 13" d="M86.751,8.1h.035a.228.228,0,1,0,.034-.455c-.209-.032-.423-.055-.635-.066a.228.228,0,1,0-.027.455C86.355,8.047,86.556,8.068,86.751,8.1Z" transform="translate(-78.789 -7.207)" fill="#2b1b19"/>
          <path id="Path_14" data-name="Path 14" d="M29.524,22.632A5.47,5.47,0,0,1,30,22.272a.228.228,0,0,0-.257-.374c-.174.12-.346.25-.509.385a.228.228,0,0,0,.291.351Z" transform="translate(-26.721 -20.302)" fill="#2b1b19"/>
          <path id="Path_15" data-name="Path 15" d="M46.571,13.094a.228.228,0,0,0,.1-.023c.179-.085.364-.162.551-.23a.228.228,0,0,0-.12-.438l-.032.01a5.659,5.659,0,0,0-.588.247.228.228,0,0,0,.1.433Z" transform="translate(-42.488 -11.627)" fill="#2b1b19"/>
          <path id="Path_16" data-name="Path 16" d="M79.092,169.813a.228.228,0,0,0-.012.455h.189c.15,0,.3,0,.445-.014a.228.228,0,1,0-.029-.455,5.631,5.631,0,0,1-.592.014Z" transform="translate(-72.296 -155.933)" fill="#2b1b19"/>
          <path id="Path_17" data-name="Path 17" d="M157.841,109.9a.228.228,0,0,0,.29-.137h0c.071-.2.133-.4.186-.606a.228.228,0,0,0-.434-.137.257.257,0,0,0-.007.031c-.05.192-.108.383-.174.569a.228.228,0,0,0,.137.28Z" transform="translate(-144.57 -100.061)" fill="#2b1b19"/>
          <path id="Path_18" data-name="Path 18" d="M160.051,69.415h.038a.228.228,0,0,0,.188-.26c-.035-.209-.079-.42-.132-.624a.228.228,0,0,0-.439.115c.05.191.091.388.124.584a.228.228,0,0,0,.22.186Z" transform="translate(-146.41 -62.941)" fill="#2b1b19"/>
          <path id="Path_19" data-name="Path 19" d="M31.667,3.529l-2.413.728-.813-.86a.735.735,0,0,0-.836-.2h-.014a.894.894,0,0,0-.486.486.82.82,0,0,0-.05.179l-.091-.032a.228.228,0,1,0-.139.433h0c.117.038.234.08.351.124a.868.868,0,0,0,.123.15l.859.812-.245.81h0a5.339,5.339,0,1,0,1.128,1.088l.388-.7.9.849-.217.717a.22.22,0,0,0,.05.224s.444.439.455.455a.22.22,0,0,0,.3-.076v0h0l.592-1.086,1.072-.577a.221.221,0,0,0,.065-.356l-.4-.423a.22.22,0,0,0-.22-.055l-.724.22-.849-.9,1.9-1.06a.221.221,0,0,0,.065-.356l-.534-.537a.221.221,0,0,0-.222-.05ZM21.379,7.047a4.864,4.864,0,0,1,3.446-1.424q.15,0,.3.009a1.358,1.358,0,0,1,.03,2.166A10.626,10.626,0,0,1,24.063,8.8a4.787,4.787,0,0,0-1.277,1.363c-.234.527-.062,1,.88,1.421a2.476,2.476,0,0,1,.827.494c.014.016.027,0,.024,0a.091.091,0,0,0-.03.008,1.882,1.882,0,0,1-.715.123,3.69,3.69,0,0,1-2.587-1.246c-.455-.4-.832-.741-1.224-.744a4.864,4.864,0,0,1,1.416-3.175ZM29.709,10.5a4.884,4.884,0,0,1-3.369,4.64,1.59,1.59,0,0,1,.186-1.032,3.756,3.756,0,0,1,.91-1c1.4-1.166,1.477-1.818,1.537-2.319.038-.319.066-.551.692-.9a4.942,4.942,0,0,1,.038.606Zm-.284-1.639a4.841,4.841,0,0,1,.167.584c-.951.485-1,.83-1.052,1.3-.05.424-.118.979-1.382,2.033A4.142,4.142,0,0,0,26.146,13.9a2.009,2.009,0,0,0-.228,1.352,4.881,4.881,0,0,1-5.963-4.585c.241,0,.551.286.936.627a4.085,4.085,0,0,0,2.9,1.363,2.276,2.276,0,0,0,.91-.173.455.455,0,0,0,.25-.285.433.433,0,0,0-.109-.4,2.829,2.829,0,0,0-.993-.619c-.64-.284-.78-.559-.655-.841a4.711,4.711,0,0,1,1.155-1.212,11.028,11.028,0,0,0,1.138-1.059,1.722,1.722,0,0,0,.315-2.367,4.849,4.849,0,0,1,1.971.894l-.351,1.152a.221.221,0,0,0,.053.224s.565.56.584.571a.22.22,0,0,0,.3-.076v0h0l.441-.8a4.871,4.871,0,0,1,.618,1.189Zm.564-3.575a.22.22,0,0,0-.091.3l0,.006h0c.009.016,1.168,1.252,1.168,1.252a.22.22,0,0,0,.224.059h0l.732-.221.114.114-.683.377-.2.1a.218.218,0,0,0-.1.1h0l-.1.2-.377.683-.111-.121L30.8,7.4a.22.22,0,0,0-.071-.234L29.531,6.038a.22.22,0,0,0-.31,0h0c-.015.016-1.093,1.953-1.093,1.953l-.235-.235.733-2.416a.22.22,0,0,0-.071-.235L27.6,4.221a.315.315,0,0,1-.086-.364.475.475,0,0,1,.247-.245h.008a.315.315,0,0,1,.355.091l.91.961a.22.22,0,0,0,.224.061h0l2.423-.731.235.235Z" transform="translate(-17.849 -3.142)" fill="#2b1b19"/>
          <path id="Path_20" data-name="Path 20" d="M149.144,127.93a.228.228,0,0,0-.3.091c-.1.174-.2.346-.312.509a.228.228,0,1,0,.372.262c.118-.176.23-.359.333-.544a.228.228,0,0,0-.08-.31Z" transform="translate(-136.13 -117.524)" fill="#2b1b19"/>
          <path id="Path_21" data-name="Path 21" d="M162.492,89.286c.02-.21.029-.424.029-.637v-.032a.228.228,0,0,0-.228-.228h0a.228.228,0,0,0-.234.221v.04c0,.2-.009.4-.027.6a.228.228,0,0,0,.206.247h.021A.228.228,0,0,0,162.492,89.286Z" transform="translate(-148.549 -81.298)" fill="#2b1b19"/>
          <path id="Path_22" data-name="Path 22" d="M58.9,166.856a.228.228,0,0,0-.15.429h.027c.2.057.412.108.621.15h.043a.228.228,0,1,0,.074-.451l-.031,0a4.68,4.68,0,0,1-.583-.125Z" transform="translate(-53.716 -153.222)" fill="#2b1b19"/>
          <path id="Path_23" data-name="Path 23" d="M99.9,166a4.525,4.525,0,0,1-.574.15.228.228,0,1,0,.1.444c.206-.046.414-.1.615-.17a.228.228,0,0,0-.141-.432Z" transform="translate(-90.892 -152.435)" fill="#2b1b19"/>
          <path id="Path_24" data-name="Path 24" d="M40.237,158.815a.228.228,0,1,0-.254.376l.024.014c.182.108.373.207.565.3a.228.228,0,0,0,.194-.412C40.585,159.008,40.408,158.912,40.237,158.815Z" transform="translate(-36.56 -145.828)" fill="#2b1b19"/>
          <path id="Path_25" data-name="Path 25" d="M135.558,144.412a5.514,5.514,0,0,1-.427.417.228.228,0,1,0,.3.34c.15-.141.312-.291.455-.445a.228.228,0,1,0-.331-.31Z" transform="translate(-123.815 -132.592)" fill="#2b1b19"/>
          <path id="Path_26" data-name="Path 26" d="M118.9,157.474c-.167.106-.341.206-.516.3a.228.228,0,1,0,.208.4c.188-.1.374-.2.551-.319a.228.228,0,0,0-.234-.389Z" transform="translate(-108.415 -144.609)" fill="#2b1b19"/>
        </g>
        <text id="NiceTrip-2" data-name="NiceTrip" transform="translate(179.812 55.992)" font-size="10" font-family="SitkaSmall, Sitka Small"><tspan x="0" y="0">NiceTrip</tspan></text>
      </g>
    </g>
  </g>
</svg>
