<svg xmlns="http://www.w3.org/2000/svg" xmlns:xlink="http://www.w3.org/1999/xlink" width="49" height="65" viewBox="0 0 49 65">
  <defs>
    <clipPath id="clip-path">
      <circle id="Ellipse_1" data-name="Ellipse 1" cx="24.5" cy="24.5" r="24.5" transform="translate(683 492)" fill="#fff" stroke="#707070" stroke-width="1"/>
    </clipPath>
  </defs>
  <g id="php3" transform="translate(-683 -492)">
    <g id="Mask_Group_12" data-name="Mask Group 12" clip-path="url(#clip-path)">
      <g id="php_1_" data-name="php (1)" transform="translate(683 492)">
        <path id="Path_40" data-name="Path 40" d="M49,24.5A24.5,24.5,0,0,1,3.265,36.727,24.508,24.508,0,1,1,49,24.5Z" fill="#8f9ed1"/>
        <g id="Group_21" data-name="Group 21">
          <path id="Path_41" data-name="Path 41" d="M12.458,17.058H3.435L.864,30.97a24.309,24.309,0,0,0,2.4,5.757H4.1l1-5.388h4.958c6.037,0,7.66-5.42,8.049-8.082A5.523,5.523,0,0,0,12.458,17.058Zm1.309,6.648c-.221,1.509-1.336,4.582-4.758,4.582H5.662l1.5-8.1h3.407C13.886,20.191,13.988,22.2,13.767,23.706Z" fill="#f2f2f2"/>
          <path id="Path_42" data-name="Path 42" d="M48.041,17.69a5.9,5.9,0,0,0-2.737-.632H36.281L32.646,36.727h4.3l1-5.388H42.9a7.146,7.146,0,0,0,5.714-2.5,24.686,24.686,0,0,0-.575-11.152Zm-1.428,6.016c-.221,1.509-1.336,4.582-4.759,4.582H38.508l1.5-8.1h3.407C46.732,20.191,46.834,22.2,46.613,23.706Z" fill="#f2f2f2"/>
          <path id="Path_43" data-name="Path 43" d="M29.6,17.123H24.37l.981-5.307H21.066L17.431,31.485h4.284l2.09-11.311h2.738c1.817,0,3.051.39,2.791,2.077S27.583,31.4,27.583,31.4h4.349S33.62,23.1,33.879,20.758,32,17.123,29.6,17.123Z" fill="#f2f2f2"/>
        </g>
      </g>
    </g>
    <g id="php">
      <text id="PHP7" transform="translate(693 554)" font-size="12" font-family="SegoeUI-Semibold, Segoe UI" font-weight="600"><tspan x="0" y="0">PHP7</tspan></text>
    </g>
  </g>
</svg>
